<mxfile host="app.diagrams.net" modified="2024-05-19T17:52:30.748Z" agent="Mozilla/5.0 (Windows NT 10.0; Win64; x64) AppleWebKit/537.36 (KHTML, like Gecko) Chrome/125.0.0.0 Safari/537.36" etag="YYvkq5whKZ_eo5S363vc" version="24.4.4" type="google">
  <diagram name="Page-1" id="e7e014a7-5840-1c2e-5031-d8a46d1fe8dd">
    <mxGraphModel grid="0" page="0" gridSize="10" guides="1" tooltips="1" connect="1" arrows="1" fold="1" pageScale="1" pageWidth="1169" pageHeight="826" background="none" math="0" shadow="0">
      <root>
        <mxCell id="0" />
        <mxCell id="1" parent="0" />
        <mxCell id="2" value="販売管理者" style="swimlane;whiteSpace=wrap" vertex="1" parent="1">
          <mxGeometry x="161.5" y="40" width="280" height="1200" as="geometry" />
        </mxCell>
        <mxCell id="jm9fpF-__gH5ew6w-gA--67" style="edgeStyle=orthogonalEdgeStyle;rounded=0;orthogonalLoop=1;jettySize=auto;html=1;entryX=0.5;entryY=0;entryDx=0;entryDy=0;" edge="1" parent="2" source="5" target="jm9fpF-__gH5ew6w-gA--20">
          <mxGeometry relative="1" as="geometry" />
        </mxCell>
        <mxCell id="5" value="" style="ellipse;shape=startState;fillColor=#000000;strokeColor=none;" vertex="1" parent="2">
          <mxGeometry x="123" y="45" width="30" height="30" as="geometry" />
        </mxCell>
        <mxCell id="jm9fpF-__gH5ew6w-gA--20" value="&lt;font style=&quot;font-size: 11px;&quot;&gt;商品管理画面に&lt;/font&gt;&lt;div&gt;&lt;font style=&quot;font-size: 11px;&quot;&gt;アクセス&lt;/font&gt;&lt;/div&gt;" style="rounded=1;whiteSpace=wrap;html=1;arcSize=40;" vertex="1" parent="2">
          <mxGeometry x="78" y="120" width="120" height="40" as="geometry" />
        </mxCell>
        <mxCell id="jm9fpF-__gH5ew6w-gA--23" value="&lt;font style=&quot;font-size: 11px;&quot;&gt;新規登録ボタンを押下&lt;/font&gt;" style="rounded=1;whiteSpace=wrap;html=1;arcSize=40;" vertex="1" parent="2">
          <mxGeometry x="78" y="200" width="120" height="40" as="geometry" />
        </mxCell>
        <mxCell id="jm9fpF-__gH5ew6w-gA--33" style="edgeStyle=orthogonalEdgeStyle;rounded=0;orthogonalLoop=1;jettySize=auto;html=1;entryX=0.5;entryY=0;entryDx=0;entryDy=0;" edge="1" parent="2" source="jm9fpF-__gH5ew6w-gA--28" target="jm9fpF-__gH5ew6w-gA--30">
          <mxGeometry relative="1" as="geometry" />
        </mxCell>
        <mxCell id="jm9fpF-__gH5ew6w-gA--28" value="&lt;span style=&quot;font-size: 11px;&quot;&gt;商品情報を入力&lt;/span&gt;" style="rounded=1;whiteSpace=wrap;html=1;arcSize=40;" vertex="1" parent="2">
          <mxGeometry x="78" y="360" width="120" height="40" as="geometry" />
        </mxCell>
        <mxCell id="jm9fpF-__gH5ew6w-gA--30" value="&lt;span style=&quot;font-size: 11px;&quot;&gt;登録ボタンを押下&lt;/span&gt;" style="rounded=1;whiteSpace=wrap;html=1;arcSize=40;" vertex="1" parent="2">
          <mxGeometry x="78" y="440" width="120" height="40" as="geometry" />
        </mxCell>
        <mxCell id="jm9fpF-__gH5ew6w-gA--44" style="edgeStyle=orthogonalEdgeStyle;rounded=0;orthogonalLoop=1;jettySize=auto;html=1;entryX=0;entryY=0.5;entryDx=0;entryDy=0;" edge="1" parent="2" source="jm9fpF-__gH5ew6w-gA--41" target="jm9fpF-__gH5ew6w-gA--28">
          <mxGeometry relative="1" as="geometry">
            <Array as="points">
              <mxPoint x="58" y="620" />
              <mxPoint x="58" y="380" />
            </Array>
          </mxGeometry>
        </mxCell>
        <mxCell id="jm9fpF-__gH5ew6w-gA--41" value="&lt;font style=&quot;font-size: 12px;&quot;&gt;エラー内容を確認&lt;/font&gt;" style="rounded=1;whiteSpace=wrap;html=1;arcSize=40;" vertex="1" parent="2">
          <mxGeometry x="78" y="600" width="120" height="40" as="geometry" />
        </mxCell>
        <mxCell id="jm9fpF-__gH5ew6w-gA--69" style="edgeStyle=orthogonalEdgeStyle;rounded=0;orthogonalLoop=1;jettySize=auto;html=1;entryX=0.5;entryY=0;entryDx=0;entryDy=0;" edge="1" parent="2" source="jm9fpF-__gH5ew6w-gA--65" target="jm9fpF-__gH5ew6w-gA--68">
          <mxGeometry relative="1" as="geometry" />
        </mxCell>
        <mxCell id="jm9fpF-__gH5ew6w-gA--65" value="登録が完了したことを確認" style="rounded=1;whiteSpace=wrap;html=1;arcSize=40;" vertex="1" parent="2">
          <mxGeometry x="78" y="1040" width="120" height="40" as="geometry" />
        </mxCell>
        <mxCell id="jm9fpF-__gH5ew6w-gA--68" value="" style="ellipse;html=1;shape=endState;fillColor=#000000;strokeColor=default;" vertex="1" parent="2">
          <mxGeometry x="123" y="1130" width="30" height="30" as="geometry" />
        </mxCell>
        <mxCell id="3" value="ECサイト画面" style="swimlane;whiteSpace=wrap;startSize=23;" vertex="1" parent="1">
          <mxGeometry x="441.5" y="39" width="280" height="1201" as="geometry" />
        </mxCell>
        <mxCell id="jm9fpF-__gH5ew6w-gA--21" value="商品管理画面を表示" style="rounded=1;whiteSpace=wrap;html=1;arcSize=40;" vertex="1" parent="3">
          <mxGeometry x="77.75" y="121" width="120" height="40" as="geometry" />
        </mxCell>
        <mxCell id="jm9fpF-__gH5ew6w-gA--26" value="&lt;span style=&quot;font-size: 11px;&quot;&gt;商品の新規登録画面&lt;/span&gt;&lt;div&gt;&lt;span style=&quot;font-size: 11px;&quot;&gt;を表示&lt;/span&gt;&lt;/div&gt;" style="rounded=1;whiteSpace=wrap;html=1;arcSize=40;" vertex="1" parent="3">
          <mxGeometry x="77.75" y="281" width="120" height="40" as="geometry" />
        </mxCell>
        <mxCell id="jm9fpF-__gH5ew6w-gA--35" style="edgeStyle=orthogonalEdgeStyle;rounded=0;orthogonalLoop=1;jettySize=auto;html=1;entryX=0.5;entryY=0;entryDx=0;entryDy=0;" edge="1" parent="3" source="jm9fpF-__gH5ew6w-gA--31" target="jm9fpF-__gH5ew6w-gA--32">
          <mxGeometry relative="1" as="geometry" />
        </mxCell>
        <mxCell id="jm9fpF-__gH5ew6w-gA--31" value="&lt;span style=&quot;font-size: 11px;&quot;&gt;入力値の&lt;/span&gt;&lt;div&gt;&lt;span style=&quot;font-size: 11px;&quot;&gt;バリデーション&lt;/span&gt;&lt;/div&gt;" style="rounded=1;whiteSpace=wrap;html=1;arcSize=40;" vertex="1" parent="3">
          <mxGeometry x="78.75" y="441" width="120" height="40" as="geometry" />
        </mxCell>
        <mxCell id="jm9fpF-__gH5ew6w-gA--73" style="edgeStyle=orthogonalEdgeStyle;rounded=0;orthogonalLoop=1;jettySize=auto;html=1;entryX=0.5;entryY=0;entryDx=0;entryDy=0;" edge="1" parent="3" source="jm9fpF-__gH5ew6w-gA--32" target="jm9fpF-__gH5ew6w-gA--70">
          <mxGeometry relative="1" as="geometry" />
        </mxCell>
        <mxCell id="jm9fpF-__gH5ew6w-gA--74" style="edgeStyle=orthogonalEdgeStyle;rounded=0;orthogonalLoop=1;jettySize=auto;html=1;entryX=0.5;entryY=0;entryDx=0;entryDy=0;" edge="1" parent="3" source="jm9fpF-__gH5ew6w-gA--32" target="jm9fpF-__gH5ew6w-gA--40">
          <mxGeometry relative="1" as="geometry">
            <Array as="points">
              <mxPoint x="39" y="541" />
              <mxPoint x="39" y="681" />
              <mxPoint x="140" y="681" />
            </Array>
          </mxGeometry>
        </mxCell>
        <mxCell id="jm9fpF-__gH5ew6w-gA--32" value="" style="rhombus;whiteSpace=wrap;html=1;" vertex="1" parent="3">
          <mxGeometry x="109.25" y="521" width="59" height="40" as="geometry" />
        </mxCell>
        <mxCell id="jm9fpF-__gH5ew6w-gA--36" value="適正な値である場合" style="text;html=1;align=center;verticalAlign=middle;whiteSpace=wrap;rounded=0;" vertex="1" parent="3">
          <mxGeometry x="148.5" y="561" width="110" height="30" as="geometry" />
        </mxCell>
        <mxCell id="jm9fpF-__gH5ew6w-gA--37" value="不正な値である場合" style="text;html=1;align=center;verticalAlign=middle;whiteSpace=wrap;rounded=0;" vertex="1" parent="3">
          <mxGeometry y="511" width="110" height="30" as="geometry" />
        </mxCell>
        <mxCell id="jm9fpF-__gH5ew6w-gA--40" value="&lt;font style=&quot;font-size: 12px;&quot;&gt;エラー内容を表示&lt;/font&gt;" style="rounded=1;whiteSpace=wrap;html=1;arcSize=40;" vertex="1" parent="3">
          <mxGeometry x="80" y="721" width="120" height="40" as="geometry" />
        </mxCell>
        <mxCell id="jm9fpF-__gH5ew6w-gA--64" value="登録完了画面を表示" style="rounded=1;whiteSpace=wrap;html=1;arcSize=40;" vertex="1" parent="3">
          <mxGeometry x="77.75" y="1041" width="120" height="40" as="geometry" />
        </mxCell>
        <mxCell id="jm9fpF-__gH5ew6w-gA--70" value="&lt;div&gt;&lt;font style=&quot;font-size: 12px;&quot;&gt;商品情報登録&lt;/font&gt;&lt;/div&gt;&lt;font style=&quot;font-size: 12px;&quot;&gt;APIリクエストを送信&lt;/font&gt;" style="rounded=1;whiteSpace=wrap;html=1;arcSize=40;" vertex="1" parent="3">
          <mxGeometry x="78.75" y="601.5" width="120" height="40" as="geometry" />
        </mxCell>
        <mxCell id="jm9fpF-__gH5ew6w-gA--10" value="APIサーバー" style="swimlane;whiteSpace=wrap;startSize=23;" vertex="1" parent="1">
          <mxGeometry x="721.5" y="39" width="280" height="1201" as="geometry" />
        </mxCell>
        <mxCell id="jm9fpF-__gH5ew6w-gA--48" style="edgeStyle=orthogonalEdgeStyle;rounded=0;orthogonalLoop=1;jettySize=auto;html=1;entryX=0.5;entryY=0;entryDx=0;entryDy=0;" edge="1" parent="jm9fpF-__gH5ew6w-gA--10" source="jm9fpF-__gH5ew6w-gA--45" target="jm9fpF-__gH5ew6w-gA--47">
          <mxGeometry relative="1" as="geometry" />
        </mxCell>
        <mxCell id="jm9fpF-__gH5ew6w-gA--45" value="&lt;span style=&quot;font-size: 11px;&quot;&gt;入力値の&lt;/span&gt;&lt;div&gt;&lt;span style=&quot;font-size: 11px;&quot;&gt;バリデーション&lt;/span&gt;&lt;/div&gt;" style="rounded=1;whiteSpace=wrap;html=1;arcSize=40;" vertex="1" parent="jm9fpF-__gH5ew6w-gA--10">
          <mxGeometry x="77.75" y="601" width="120" height="40" as="geometry" />
        </mxCell>
        <mxCell id="jm9fpF-__gH5ew6w-gA--51" style="edgeStyle=orthogonalEdgeStyle;rounded=0;orthogonalLoop=1;jettySize=auto;html=1;entryX=0.5;entryY=0;entryDx=0;entryDy=0;" edge="1" parent="jm9fpF-__gH5ew6w-gA--10" source="jm9fpF-__gH5ew6w-gA--47" target="jm9fpF-__gH5ew6w-gA--49">
          <mxGeometry relative="1" as="geometry" />
        </mxCell>
        <mxCell id="jm9fpF-__gH5ew6w-gA--53" style="edgeStyle=orthogonalEdgeStyle;rounded=0;orthogonalLoop=1;jettySize=auto;html=1;entryX=1;entryY=0.5;entryDx=0;entryDy=0;" edge="1" parent="jm9fpF-__gH5ew6w-gA--10" source="jm9fpF-__gH5ew6w-gA--47" target="jm9fpF-__gH5ew6w-gA--50">
          <mxGeometry relative="1" as="geometry">
            <Array as="points">
              <mxPoint x="218" y="701" />
              <mxPoint x="218" y="861" />
              <mxPoint x="219" y="861" />
              <mxPoint x="219" y="901" />
            </Array>
          </mxGeometry>
        </mxCell>
        <mxCell id="jm9fpF-__gH5ew6w-gA--47" value="" style="rhombus;whiteSpace=wrap;html=1;" vertex="1" parent="jm9fpF-__gH5ew6w-gA--10">
          <mxGeometry x="108.5" y="681" width="59" height="40" as="geometry" />
        </mxCell>
        <mxCell id="jm9fpF-__gH5ew6w-gA--49" value="&lt;font style=&quot;font-size: 12px;&quot;&gt;エラーを返却&lt;/font&gt;" style="rounded=1;whiteSpace=wrap;html=1;arcSize=40;" vertex="1" parent="jm9fpF-__gH5ew6w-gA--10">
          <mxGeometry x="77.75" y="801" width="120" height="40" as="geometry" />
        </mxCell>
        <mxCell id="jm9fpF-__gH5ew6w-gA--50" value="&lt;font style=&quot;font-size: 12px;&quot;&gt;商品情報を登録&lt;/font&gt;" style="rounded=1;whiteSpace=wrap;html=1;arcSize=40;" vertex="1" parent="jm9fpF-__gH5ew6w-gA--10">
          <mxGeometry x="77.75" y="881" width="120" height="40" as="geometry" />
        </mxCell>
        <mxCell id="jm9fpF-__gH5ew6w-gA--54" value="適正な値である場合" style="text;html=1;align=center;verticalAlign=middle;whiteSpace=wrap;rounded=0;" vertex="1" parent="jm9fpF-__gH5ew6w-gA--10">
          <mxGeometry x="167.25" y="671" width="110" height="30" as="geometry" />
        </mxCell>
        <mxCell id="jm9fpF-__gH5ew6w-gA--55" value="不正な値である場合" style="text;html=1;align=center;verticalAlign=middle;whiteSpace=wrap;rounded=0;" vertex="1" parent="jm9fpF-__gH5ew6w-gA--10">
          <mxGeometry x="18.5" y="721" width="110" height="30" as="geometry" />
        </mxCell>
        <mxCell id="jm9fpF-__gH5ew6w-gA--59" value="&lt;span style=&quot;font-size: 11px;&quot;&gt;登録完了のレスポンス&lt;/span&gt;&lt;div&gt;&lt;span style=&quot;font-size: 11px;&quot;&gt;を返却&lt;/span&gt;&lt;/div&gt;" style="rounded=1;whiteSpace=wrap;html=1;arcSize=40;" vertex="1" parent="jm9fpF-__gH5ew6w-gA--10">
          <mxGeometry x="77.75" y="1041" width="120" height="40" as="geometry" />
        </mxCell>
        <mxCell id="jm9fpF-__gH5ew6w-gA--15" value="データベース" style="swimlane;whiteSpace=wrap;startSize=23;" vertex="1" parent="1">
          <mxGeometry x="1001.5" y="39" width="280" height="1201" as="geometry" />
        </mxCell>
        <mxCell id="jm9fpF-__gH5ew6w-gA--82" style="edgeStyle=orthogonalEdgeStyle;rounded=0;orthogonalLoop=1;jettySize=auto;html=1;entryX=0.5;entryY=0;entryDx=0;entryDy=0;" edge="1" parent="jm9fpF-__gH5ew6w-gA--15" source="jm9fpF-__gH5ew6w-gA--19" target="jm9fpF-__gH5ew6w-gA--81">
          <mxGeometry relative="1" as="geometry" />
        </mxCell>
        <mxCell id="jm9fpF-__gH5ew6w-gA--19" value="&lt;font style=&quot;font-size: 12px;&quot;&gt;商品情報を登録&lt;/font&gt;" style="rounded=1;whiteSpace=wrap;html=1;arcSize=40;" vertex="1" parent="jm9fpF-__gH5ew6w-gA--15">
          <mxGeometry x="79" y="961" width="120" height="40" as="geometry" />
        </mxCell>
        <mxCell id="jm9fpF-__gH5ew6w-gA--81" value="&lt;span style=&quot;font-size: 11px;&quot;&gt;登録完了のレスポンス&lt;/span&gt;&lt;div&gt;&lt;span style=&quot;font-size: 11px;&quot;&gt;を返却&lt;/span&gt;&lt;/div&gt;" style="rounded=1;whiteSpace=wrap;html=1;arcSize=40;" vertex="1" parent="jm9fpF-__gH5ew6w-gA--15">
          <mxGeometry x="79" y="1041" width="120" height="40" as="geometry" />
        </mxCell>
        <mxCell id="jm9fpF-__gH5ew6w-gA--24" style="edgeStyle=orthogonalEdgeStyle;rounded=0;orthogonalLoop=1;jettySize=auto;html=1;entryX=0;entryY=0.5;entryDx=0;entryDy=0;" edge="1" parent="1" source="jm9fpF-__gH5ew6w-gA--20" target="jm9fpF-__gH5ew6w-gA--21">
          <mxGeometry relative="1" as="geometry" />
        </mxCell>
        <mxCell id="jm9fpF-__gH5ew6w-gA--25" style="edgeStyle=orthogonalEdgeStyle;rounded=0;orthogonalLoop=1;jettySize=auto;html=1;entryX=1;entryY=0.5;entryDx=0;entryDy=0;" edge="1" parent="1" source="jm9fpF-__gH5ew6w-gA--21" target="jm9fpF-__gH5ew6w-gA--23">
          <mxGeometry relative="1" as="geometry">
            <Array as="points">
              <mxPoint x="579" y="260" />
            </Array>
          </mxGeometry>
        </mxCell>
        <mxCell id="jm9fpF-__gH5ew6w-gA--27" style="edgeStyle=orthogonalEdgeStyle;rounded=0;orthogonalLoop=1;jettySize=auto;html=1;entryX=0;entryY=0.5;entryDx=0;entryDy=0;" edge="1" parent="1" source="jm9fpF-__gH5ew6w-gA--23" target="jm9fpF-__gH5ew6w-gA--26">
          <mxGeometry relative="1" as="geometry">
            <Array as="points">
              <mxPoint x="300" y="340" />
            </Array>
          </mxGeometry>
        </mxCell>
        <mxCell id="jm9fpF-__gH5ew6w-gA--29" style="edgeStyle=orthogonalEdgeStyle;rounded=0;orthogonalLoop=1;jettySize=auto;html=1;entryX=1;entryY=0.5;entryDx=0;entryDy=0;" edge="1" parent="1" source="jm9fpF-__gH5ew6w-gA--26" target="jm9fpF-__gH5ew6w-gA--28">
          <mxGeometry relative="1" as="geometry">
            <Array as="points">
              <mxPoint x="579" y="420" />
            </Array>
          </mxGeometry>
        </mxCell>
        <mxCell id="jm9fpF-__gH5ew6w-gA--34" style="edgeStyle=orthogonalEdgeStyle;rounded=0;orthogonalLoop=1;jettySize=auto;html=1;entryX=0;entryY=0.5;entryDx=0;entryDy=0;" edge="1" parent="1" source="jm9fpF-__gH5ew6w-gA--30" target="jm9fpF-__gH5ew6w-gA--31">
          <mxGeometry relative="1" as="geometry" />
        </mxCell>
        <mxCell id="jm9fpF-__gH5ew6w-gA--66" style="edgeStyle=orthogonalEdgeStyle;rounded=0;orthogonalLoop=1;jettySize=auto;html=1;entryX=1;entryY=0.5;entryDx=0;entryDy=0;" edge="1" parent="1" source="jm9fpF-__gH5ew6w-gA--64" target="jm9fpF-__gH5ew6w-gA--65">
          <mxGeometry relative="1" as="geometry" />
        </mxCell>
        <mxCell id="jm9fpF-__gH5ew6w-gA--75" style="edgeStyle=orthogonalEdgeStyle;rounded=0;orthogonalLoop=1;jettySize=auto;html=1;entryX=0.5;entryY=1;entryDx=0;entryDy=0;" edge="1" parent="1" source="jm9fpF-__gH5ew6w-gA--40" target="jm9fpF-__gH5ew6w-gA--41">
          <mxGeometry relative="1" as="geometry" />
        </mxCell>
        <mxCell id="jm9fpF-__gH5ew6w-gA--76" style="edgeStyle=orthogonalEdgeStyle;rounded=0;orthogonalLoop=1;jettySize=auto;html=1;entryX=0;entryY=0.5;entryDx=0;entryDy=0;" edge="1" parent="1" source="jm9fpF-__gH5ew6w-gA--70" target="jm9fpF-__gH5ew6w-gA--45">
          <mxGeometry relative="1" as="geometry" />
        </mxCell>
        <mxCell id="jm9fpF-__gH5ew6w-gA--77" style="edgeStyle=orthogonalEdgeStyle;rounded=0;orthogonalLoop=1;jettySize=auto;html=1;entryX=0.5;entryY=1;entryDx=0;entryDy=0;" edge="1" parent="1" source="jm9fpF-__gH5ew6w-gA--49" target="jm9fpF-__gH5ew6w-gA--40">
          <mxGeometry relative="1" as="geometry" />
        </mxCell>
        <mxCell id="jm9fpF-__gH5ew6w-gA--78" style="edgeStyle=orthogonalEdgeStyle;rounded=0;orthogonalLoop=1;jettySize=auto;html=1;entryX=0;entryY=0.5;entryDx=0;entryDy=0;" edge="1" parent="1" source="jm9fpF-__gH5ew6w-gA--50" target="jm9fpF-__gH5ew6w-gA--19">
          <mxGeometry relative="1" as="geometry">
            <Array as="points">
              <mxPoint x="859" y="1020" />
            </Array>
          </mxGeometry>
        </mxCell>
        <mxCell id="jm9fpF-__gH5ew6w-gA--80" style="edgeStyle=orthogonalEdgeStyle;rounded=0;orthogonalLoop=1;jettySize=auto;html=1;entryX=1;entryY=0.5;entryDx=0;entryDy=0;" edge="1" parent="1" source="jm9fpF-__gH5ew6w-gA--59" target="jm9fpF-__gH5ew6w-gA--64">
          <mxGeometry relative="1" as="geometry" />
        </mxCell>
        <mxCell id="jm9fpF-__gH5ew6w-gA--83" style="edgeStyle=orthogonalEdgeStyle;rounded=0;orthogonalLoop=1;jettySize=auto;html=1;entryX=1;entryY=0.5;entryDx=0;entryDy=0;" edge="1" parent="1" source="jm9fpF-__gH5ew6w-gA--81" target="jm9fpF-__gH5ew6w-gA--59">
          <mxGeometry relative="1" as="geometry" />
        </mxCell>
      </root>
    </mxGraphModel>
  </diagram>
</mxfile>
